<?xml version="1.0" standalone="no"?><!DOCTYPE svg PUBLIC "-//W3C//DTD SVG 1.1//EN" "http://www.w3.org/Graphics/SVG/1.1/DTD/svg11.dtd"><svg class="icon" width="200px" height="200.00px" viewBox="0 0 1024 1024" version="1.1" xmlns="http://www.w3.org/2000/svg"><path fill="#1296db" d="M959.2 800.2c-1.1 1.9-28.8 46.8-89.6 79.5-35.4 19-74.9 30.4-117.6 33.5-8.3 0.6-16.7 1-25.1 1-45.2 0-93.5-8.7-144.1-25.9-143.5-49-227.6-45.9-272.7-34.7-41.3 10.3-55.6 28.6-55.7 28.8l-39.7-26.3c2.3-3.4 23.7-33.7 83.9-48.7 33.3-8.3 72.7-10.5 116.8-6.4 53.7 5 115.2 19.1 182.8 42.2 97 33.1 180.8 31.3 248.8-5.3 48.8-26.3 71.2-61.9 71.4-62.3l40.8 24.6z m-572-60.5c56.9 19.2 111.6 29 162.7 29 2.5 0 4.9 0 7.3-0.1 43.1-0.8 83.8-8.6 120.7-23.1 64-25.3 95.1-62.7 96.4-64.2l-37-30.3c-1 1.2-103.2 121.7-334.9 43.6C145.8 608 68.2 730.4 65 735.6l40.8 24.7s-0.1 0.1-0.2 0.3c0.6-1 15.5-23.4 56.3-37.7 39.2-13.8 110.1-22.1 225.3 16.8z m112.9-176.1c0-43.9 35.6-79.5 79.5-79.5s79.5 35.6 79.5 79.5-35.6 79.5-79.5 79.5-79.5-35.6-79.5-79.5z m47.6 0c0 17.6 14.3 31.9 31.9 31.9 17.6 0 31.9-14.3 31.9-31.9 0-17.6-14.3-31.9-31.9-31.9-17.6 0-31.9 14.4-31.9 31.9zM432.3 299.8c34.7 0 62.9 28.1 62.9 62.9 0 34.7-28.1 62.9-62.9 62.9-34.7 0-62.9-28.1-62.9-62.9 0.1-34.8 28.1-62.9 62.9-62.9z m0 47.6c-8.4 0-15.2 6.9-15.2 15.2 0 8.4 6.9 15.2 15.2 15.2 8.4 0 15.2-6.9 15.2-15.2 0-8.3-6.8-15.2-15.2-15.2z m-156.2-14.1c13.1 0 23.8-10.7 23.8-23.8 0-13.1-10.7-23.8-23.8-23.8s-23.8 10.7-23.8 23.8c0 13.2 10.7 23.8 23.8 23.8z m-95.3 184.6c0-34.2 27.7-61.9 61.9-61.9s61.9 27.7 61.9 61.9-27.7 61.9-61.9 61.9-61.9-27.7-61.9-61.9z m47.6 0c0 7.9 6.4 14.3 14.3 14.3s14.3-6.4 14.3-14.3-6.4-14.3-14.3-14.3-14.3 6.5-14.3 14.3zM625.1 238c0-39.4 32-71.4 71.4-71.4 39.4 0 71.4 32 71.4 71.4 0 39.4-32 71.4-71.4 71.4-39.4 0-71.4-31.9-71.4-71.4z m47.6 0c0 13.1 10.7 23.8 23.8 23.8 13.1 0 23.8-10.7 23.8-23.8 0-13.1-10.7-23.8-23.8-23.8-13.2 0-23.8 10.7-23.8 23.8z m155.8 367.6c26.3 0 47.6-21.3 47.6-47.6s-21.3-47.6-47.6-47.6-47.6 21.3-47.6 47.6 21.3 47.6 47.6 47.6zM391.4 208.5c26.3 0 47.6-21.3 47.6-47.6s-21.3-47.6-47.6-47.6-47.6 21.3-47.6 47.6c-0.1 26.2 21.3 47.6 47.6 47.6z m295.3 186.6c0 13.1 10.7 23.8 23.8 23.8 13.1 0 23.8-10.7 23.8-23.8s-10.7-23.8-23.8-23.8c-13.2 0-23.8 10.7-23.8 23.8zM371.9 615c0 13.1 10.7 23.8 23.8 23.8 13.1 0 23.8-10.7 23.8-23.8 0-13.1-10.7-23.8-23.8-23.8-13.1 0-23.8 10.7-23.8 23.8z m0 0"  /></svg>